<?xml version="1.0" encoding="UTF-8"?>
<!DOCTYPE svg PUBLIC "-//W3C//DTD SVG 1.1//EN" "http://www.w3.org/Graphics/SVG/1.1/DTD/svg11.dtd">
<!-- Creator: CorelDRAW -->
<svg xmlns="http://www.w3.org/2000/svg" xml:space="preserve" width="2048px" height="2048px" style="shape-rendering:geometricPrecision; text-rendering:geometricPrecision; image-rendering:optimizeQuality; fill-rule:evenodd; clip-rule:evenodd"
viewBox="0 0 2048 2048"
 xmlns:xlink="http://www.w3.org/1999/xlink">
 <defs>
  <style type="text/css">
   <![CDATA[
    .fil2 {fill:none}
    .fil1 {fill:#424242}
    .fil0 {fill:#424242;fill-rule:nonzero}
   ]]>
  </style>
 </defs>
 <g id="Layer_x0020_1">
  <metadata id="CorelCorpID_0Corel-Layer"/>
  <g id="_337034264">
   <path id="_337034576" class="fil0" d="M1430.7 1228.39c56.217,0 107.118,22.7917 143.962,59.6351 36.8433,36.8433 59.6339,87.7442 59.6339,143.962 0,56.217 -22.7906,107.118 -59.6339,143.961 -36.8445,36.8445 -87.7453,59.6351 -143.962,59.6351 -56.217,0 -107.118,-22.7906 -143.961,-59.6351 -36.8445,-36.8433 -59.6351,-87.7442 -59.6351,-143.961 0,-56.2182 22.7906,-107.119 59.6351,-143.962 36.8433,-36.8433 87.7442,-59.6351 143.961,-59.6351z"/>
   <path id="_337034192" class="fil1" d="M1533.79 259.873l-0.00590552 -0.0578741 30.8776 -3.42874c34.3512,-3.81733 65.4201,21.0378 69.2339,55.3902 0.544489,4.91103 0.382677,2.47795 0.382677,7.05709l0 1081.33c0,34.6134 -28.0807,62.6941 -62.6941,62.6941 -34.6134,0 -62.6941,-28.0807 -62.6941,-62.6941l0 -1011.48 -685.712 76.1906 0 1115.53c0,34.6146 -28.0807,62.6941 -62.6941,62.6941 -34.6134,0 -62.6941,-28.0795 -62.6941,-62.6941l0 -1171.59c0,-32.915 25.441,-58.8839 57.6615,-62.4638l778.339 -86.4827z"/>
   <path id="_337034120" class="fil0" d="M618.439 1382.53c56.5311,0 107.717,22.9181 144.767,59.9682 37.05,37.05 59.9682,88.2355 59.9682,144.767 0,56.5311 -22.9181,107.717 -59.9682,144.767 -37.05,37.0488 -88.2355,59.967 -144.767,59.967 -56.5311,0 -107.717,-22.9181 -144.767,-59.967 -37.0488,-37.05 -59.9682,-88.2355 -59.9682,-144.767 0,-56.5311 22.9193,-107.717 59.9682,-144.767 37.05,-37.05 88.2355,-59.9682 144.767,-59.9682z"/>
  </g>
 </g>
 <rect class="fil2" width="2048" height="2048"/>
</svg>
